<?xml version="1.0" encoding="utf-8"?>
<svg contentScriptType="text/ecmascript" xmlns:xlink="http://www.w3.org/1999/xlink" zoomAndPan="magnify" contentStyleType="text/css" viewBox="108.12499999999983 174.0 1348.8750000000007 500.70000000000095" xmlns:cacoo="http://cacoo.com/" preserveAspectRatio="xMidYMin meet" xmlns="http://www.w3.org/2000/svg" version="1.1"><defs><marker refX="14.0" refY="7.0" markerUnits="userSpaceOnUse" orient="auto" id="id37" markerHeight="14.0" viewBox="0 0 14.0 14.0" preserveAspectRatio="xMidYMid meet" markerWidth="14.0" overflow="visible"><path fill="#000000" d="M7.0 3.5 L14.0 7.0 L7.0 10.5z" stroke-width="3.0" stroke-linejoin="round" stroke-linecap="round" stroke="#000000"/></marker><marker refX="14.0" refY="7.0" markerUnits="userSpaceOnUse" orient="auto" id="id38" markerHeight="14.0" viewBox="0 0 14.0 14.0" preserveAspectRatio="xMidYMid meet" markerWidth="14.0" overflow="visible"><path fill="#000000" d="M7.0 3.5 L14.0 7.0 L7.0 10.5z" stroke-width="1.0" stroke-linejoin="round" stroke-linecap="round" stroke="#000000"/></marker><marker refX="14.0" refY="7.0" markerUnits="userSpaceOnUse" orient="auto" id="id43" markerHeight="14.0" viewBox="0 0 14.0 14.0" preserveAspectRatio="xMidYMid meet" markerWidth="14.0" overflow="visible"><path fill="#000000" d="M7.0 3.5 L14.0 7.0 L7.0 10.5z" stroke-width="3.0" stroke-linejoin="round" stroke-linecap="round" stroke="#000000"/></marker><marker refX="14.0" refY="7.0" markerUnits="userSpaceOnUse" orient="auto" id="id44" markerHeight="14.0" viewBox="0 0 14.0 14.0" preserveAspectRatio="xMidYMid meet" markerWidth="14.0" overflow="visible"><path fill="#000000" d="M7.0 3.5 L14.0 7.0 L7.0 10.5z" stroke-width="1.0" stroke-linejoin="round" stroke-linecap="round" stroke="#000000"/></marker><marker refX="14.0" refY="7.0" markerUnits="userSpaceOnUse" orient="auto" id="id47" markerHeight="14.0" viewBox="0 0 14.0 14.0" preserveAspectRatio="xMidYMid meet" markerWidth="14.0" overflow="visible"><path fill="#000000" d="M7.0 3.5 L14.0 7.0 L7.0 10.5z" stroke-width="3.0" stroke-linejoin="round" stroke-linecap="round" stroke="#000000"/></marker><marker refX="14.0" refY="7.0" markerUnits="userSpaceOnUse" orient="auto" id="id50" markerHeight="14.0" viewBox="0 0 14.0 14.0" preserveAspectRatio="xMidYMid meet" markerWidth="14.0" overflow="visible"><path fill="#000000" d="M7.0 3.5 L14.0 7.0 L7.0 10.5z" stroke-width="3.0" stroke-linejoin="round" stroke-linecap="round" stroke="#000000"/></marker><marker refX="14.0" refY="7.0" markerUnits="userSpaceOnUse" orient="auto" id="id51" markerHeight="14.0" viewBox="0 0 14.0 14.0" preserveAspectRatio="xMidYMid meet" markerWidth="14.0" overflow="visible"><path fill="#000000" d="M7.0 3.5 L14.0 7.0 L7.0 10.5z" stroke-width="1.0" stroke-linejoin="round" stroke-linecap="round" stroke="#000000"/></marker><marker refX="14.0" refY="7.0" markerUnits="userSpaceOnUse" orient="auto" id="id54" markerHeight="14.0" viewBox="0 0 14.0 14.0" preserveAspectRatio="xMidYMid meet" markerWidth="14.0" overflow="visible"><path fill="#000000" d="M7.0 3.5 L14.0 7.0 L7.0 10.5z" stroke-width="1.0" stroke-linejoin="round" stroke-linecap="round" stroke="#000000"/></marker><marker refX="14.0" refY="7.0" markerUnits="userSpaceOnUse" orient="auto" id="id57" markerHeight="14.0" viewBox="0 0 14.0 14.0" preserveAspectRatio="xMidYMid meet" markerWidth="14.0" overflow="visible"><path fill="#000000" d="M7.0 3.5 L14.0 7.0 L7.0 10.5z" stroke-width="3.0" stroke-linejoin="round" stroke-linecap="round" stroke="#000000"/></marker><marker refX="14.0" refY="7.0" markerUnits="userSpaceOnUse" orient="auto" id="id58" markerHeight="14.0" viewBox="0 0 14.0 14.0" preserveAspectRatio="xMidYMid meet" markerWidth="14.0" overflow="visible"><path fill="#000000" d="M7.0 3.5 L14.0 7.0 L7.0 10.5z" stroke-width="3.0" stroke-linejoin="round" stroke-linecap="round" stroke="#000000"/></marker><marker refX="14.0" refY="7.0" markerUnits="userSpaceOnUse" orient="auto" id="id59" markerHeight="14.0" viewBox="0 0 14.0 14.0" preserveAspectRatio="xMidYMid meet" markerWidth="14.0" overflow="visible"><path fill="#000000" d="M7.0 3.5 L14.0 7.0 L7.0 10.5z" stroke-width="1.0" stroke-linejoin="round" stroke-linecap="round" stroke="#000000"/></marker></defs><g><g transform="translate(123.12499999999983 189.0)"><path fill="#ffffff" fill-opacity="1.0" d="M180.12499999999997 78.99999999999996 L0.0 78.99999999999996 L0.0 0.0 L180.12499999999997 0.0 L180.12499999999997 78.99999999999996z" stroke-width="1.0" stroke-linejoin="round" stroke="#000000"/><g transform="translate(1.0 1.0)"><clipPath id="id0"><path d="M0 0 L178.12499999999983 0 L178.12499999999983 77.0 L0 77.0z"/></clipPath><text font-size="12" clip-path="url(#id0)" text-decoration="none" fill="#000000" font-family="Arial,Arial" font-style="normal" font-weight="normal"/></g></g><g transform="translate(128.7499999999999 373.6999999999998)"><g transform="translate(-35.75 35.75000000000017) rotate(90.0 71.5000000000002 35.750000000000085)"><path fill="#ffffff" fill-opacity="1.0" d="M143.00000000000028 0.0 Q143.00000000000028 29.61485098000007 122.0590800000002 50.55693500000011 Q101.11715900000024 71.50000000000013 71.50000000000014 71.50000000000013 Q41.883985000000116 71.50000000000013 20.94199621800007 50.55800464000011 Q0.0 29.616015000000065 0.0 0.0 L143.00000000000028 0.0z" stroke-width="1.0" stroke-linejoin="round" stroke="#000000"/><g transform="translate(19.79691980361945 5.720000000000013)"><clipPath id="id1"><path d="M0 0 L103.41759956359893 0 L103.41759956359893 45.325278778076296 L0 45.325278778076296z"/></clipPath><text font-size="12" clip-path="url(#id1)" text-decoration="none" fill="#000000" font-family="Arial,Arial" font-style="normal" font-weight="normal"/></g></g><g transform="translate(35.75000000000017 35.75000000000034) rotate(270.0 71.5000000000002 35.750000000000085)"><path fill="#ffffff" fill-opacity="1.0" d="M143.00000000000028 0.0 Q143.00000000000028 29.61485098000007 122.0590800000002 50.55693500000011 Q101.11715900000024 71.50000000000013 71.50000000000014 71.50000000000013 Q41.883985000000116 71.50000000000013 20.94199621800007 50.55800464000011 Q0.0 29.616015000000065 0.0 0.0 L143.00000000000028 0.0z" stroke-width="1.0" stroke-linejoin="round" stroke="#000000"/><g transform="translate(19.79691980361945 5.720000000000013)"><clipPath id="id2"><path d="M0 0 L103.41759956359893 0 L103.41759956359893 45.325278778076296 L0 45.325278778076296z"/></clipPath><text font-size="12" clip-path="url(#id2)" text-decoration="none" fill="#000000" font-family="Arial,Arial" font-style="normal" font-weight="normal"/></g></g><g transform="translate(0.0 1.7053025658242404E-13)"><clipPath id="id3"><path d="M0 0 L71.50000000000023 0 L71.50000000000023 143.0000000000004 L0 143.0000000000004z"/></clipPath><text font-size="37" clip-path="url(#id3)" text-decoration="none" fill="#000000" font-family="Arial,Arial" font-style="normal" font-weight="normal"><tspan x="25.0" xml:space="preserve" y="84.5000000000002" textLength="21.0">0</tspan></text></g><g transform="translate(71.50000000000023 1.7053025658242404E-13)"><clipPath id="id4"><path d="M0 0 L71.50000000000023 0 L71.50000000000023 143.0000000000004 L0 143.0000000000004z"/></clipPath><text font-size="37" clip-path="url(#id4)" text-decoration="none" fill="#000000" font-family="Arial,Arial" font-style="normal" font-weight="normal"><tspan x="25.0" xml:space="preserve" y="84.5000000000002" textLength="21.0">0</tspan></text></g></g><g transform="translate(336.7499999999999 230.69999999999925)"><g transform="translate(-35.75 35.75000000000017) rotate(90.0 71.5000000000002 35.750000000000085)"><path fill="#ffffff" fill-opacity="1.0" d="M143.00000000000028 0.0 Q143.00000000000028 29.61485098000007 122.0590800000002 50.55693500000011 Q101.11715900000024 71.50000000000013 71.50000000000014 71.50000000000013 Q41.883985000000116 71.50000000000013 20.94199621800007 50.55800464000011 Q0.0 29.616015000000065 0.0 0.0 L143.00000000000028 0.0z" stroke-width="1.0" stroke-linejoin="round" stroke="#000000"/><g transform="translate(19.79691980361945 5.720000000000013)"><clipPath id="id5"><path d="M0 0 L103.41759956359893 0 L103.41759956359893 45.325278778076296 L0 45.325278778076296z"/></clipPath><text font-size="12" clip-path="url(#id5)" text-decoration="none" fill="#000000" font-family="Arial,Arial" font-style="normal" font-weight="normal"/></g></g><g transform="translate(35.75000000000017 35.75000000000034) rotate(270.0 71.5000000000002 35.750000000000085)"><path fill="#ffffff" fill-opacity="1.0" d="M143.00000000000028 0.0 Q143.00000000000028 29.61485098000007 122.0590800000002 50.55693500000011 Q101.11715900000024 71.50000000000013 71.50000000000014 71.50000000000013 Q41.883985000000116 71.50000000000013 20.94199621800007 50.55800464000011 Q0.0 29.616015000000065 0.0 0.0 L143.00000000000028 0.0z" stroke-width="1.0" stroke-linejoin="round" stroke="#000000"/><g transform="translate(19.79691980361945 5.720000000000013)"><clipPath id="id6"><path d="M0 0 L103.41759956359893 0 L103.41759956359893 45.325278778076296 L0 45.325278778076296z"/></clipPath><text font-size="12" clip-path="url(#id6)" text-decoration="none" fill="#000000" font-family="Arial,Arial" font-style="normal" font-weight="normal"/></g></g><g transform="translate(0.0 1.7053025658242404E-13)"><clipPath id="id7"><path d="M0 0 L71.50000000000023 0 L71.50000000000023 143.0000000000004 L0 143.0000000000004z"/></clipPath><text font-size="37" clip-path="url(#id7)" text-decoration="none" fill="#000000" font-family="Arial,Arial" font-style="normal" font-weight="normal"><tspan x="25.0" xml:space="preserve" y="84.5000000000002" textLength="21.0">1</tspan></text></g><g transform="translate(71.50000000000023 1.7053025658242404E-13)"><clipPath id="id8"><path d="M0 0 L71.50000000000023 0 L71.50000000000023 143.0000000000004 L0 143.0000000000004z"/></clipPath><text font-size="37" clip-path="url(#id8)" text-decoration="none" fill="#000000" font-family="Arial,Arial" font-style="normal" font-weight="normal"><tspan x="25.0" xml:space="preserve" y="84.5000000000002" textLength="21.0">1</tspan></text></g></g><g transform="translate(750.0 515.3999999999994)"><g transform="translate(-35.75 35.75000000000017) rotate(90.0 71.5000000000002 35.750000000000085)"><path fill="#ffffff" fill-opacity="1.0" d="M143.00000000000028 0.0 Q143.00000000000028 29.61485098000007 122.0590800000002 50.55693500000011 Q101.11715900000024 71.50000000000013 71.50000000000014 71.50000000000013 Q41.883985000000116 71.50000000000013 20.94199621800007 50.55800464000011 Q0.0 29.616015000000065 0.0 0.0 L143.00000000000028 0.0z" stroke-width="1.0" stroke-linejoin="round" stroke="#000000"/><g transform="translate(19.79691980361945 5.720000000000013)"><clipPath id="id9"><path d="M0 0 L103.41759956359893 0 L103.41759956359893 45.325278778076296 L0 45.325278778076296z"/></clipPath><text font-size="12" clip-path="url(#id9)" text-decoration="none" fill="#000000" font-family="Arial,Arial" font-style="normal" font-weight="normal"/></g></g><g transform="translate(35.75000000000017 35.75000000000034) rotate(270.0 71.5000000000002 35.750000000000085)"><path fill="#ffffff" fill-opacity="1.0" d="M143.00000000000028 0.0 Q143.00000000000028 29.61485098000007 122.0590800000002 50.55693500000011 Q101.11715900000024 71.50000000000013 71.50000000000014 71.50000000000013 Q41.883985000000116 71.50000000000013 20.94199621800007 50.55800464000011 Q0.0 29.616015000000065 0.0 0.0 L143.00000000000028 0.0z" stroke-width="1.0" stroke-linejoin="round" stroke="#000000"/><g transform="translate(19.79691980361945 5.720000000000013)"><clipPath id="id10"><path d="M0 0 L103.41759956359893 0 L103.41759956359893 45.325278778076296 L0 45.325278778076296z"/></clipPath><text font-size="12" clip-path="url(#id10)" text-decoration="none" fill="#000000" font-family="Arial,Arial" font-style="normal" font-weight="normal"/></g></g><g transform="translate(0.0 1.7053025658242404E-13)"><clipPath id="id11"><path d="M0 0 L71.50000000000023 0 L71.50000000000023 143.0000000000004 L0 143.0000000000004z"/></clipPath><text font-size="37" clip-path="url(#id11)" text-decoration="none" fill="#000000" font-family="Arial,Arial" font-style="normal" font-weight="normal"><tspan x="25.0" xml:space="preserve" y="84.5000000000002" textLength="21.0">8</tspan></text></g><g transform="translate(71.50000000000023 1.7053025658242404E-13)"><clipPath id="id12"><path d="M0 0 L71.50000000000023 0 L71.50000000000023 143.0000000000004 L0 143.0000000000004z"/></clipPath><text font-size="37" clip-path="url(#id12)" text-decoration="none" fill="#000000" font-family="Arial,Arial" font-style="normal" font-weight="normal"><tspan x="25.0" xml:space="preserve" y="84.5000000000002" textLength="21.0">8</tspan></text></g></g><g transform="translate(750.0 229.17906742741843)"><g transform="translate(-35.75 35.75000000000017) rotate(90.0 71.5000000000002 35.750000000000085)"><path fill="#ffffff" fill-opacity="1.0" d="M143.00000000000028 0.0 Q143.00000000000028 29.61485098000007 122.0590800000002 50.55693500000011 Q101.11715900000024 71.50000000000013 71.50000000000014 71.50000000000013 Q41.883985000000116 71.50000000000013 20.94199621800007 50.55800464000011 Q0.0 29.616015000000065 0.0 0.0 L143.00000000000028 0.0z" stroke-width="1.0" stroke-linejoin="round" stroke="#000000"/><g transform="translate(19.79691980361945 5.720000000000013)"><clipPath id="id13"><path d="M0 0 L103.41759956359893 0 L103.41759956359893 45.325278778076296 L0 45.325278778076296z"/></clipPath><text font-size="12" clip-path="url(#id13)" text-decoration="none" fill="#000000" font-family="Arial,Arial" font-style="normal" font-weight="normal"/></g></g><g transform="translate(35.75000000000017 35.75000000000034) rotate(270.0 71.5000000000002 35.750000000000085)"><path fill="#ffffff" fill-opacity="1.0" d="M143.00000000000028 0.0 Q143.00000000000028 29.61485098000007 122.0590800000002 50.55693500000011 Q101.11715900000024 71.50000000000013 71.50000000000014 71.50000000000013 Q41.883985000000116 71.50000000000013 20.94199621800007 50.55800464000011 Q0.0 29.616015000000065 0.0 0.0 L143.00000000000028 0.0z" stroke-width="1.0" stroke-linejoin="round" stroke="#000000"/><g transform="translate(19.79691980361945 5.720000000000013)"><clipPath id="id14"><path d="M0 0 L103.41759956359893 0 L103.41759956359893 45.325278778076296 L0 45.325278778076296z"/></clipPath><text font-size="12" clip-path="url(#id14)" text-decoration="none" fill="#000000" font-family="Arial,Arial" font-style="normal" font-weight="normal"/></g></g><g transform="translate(0.0 1.7053025658242404E-13)"><clipPath id="id15"><path d="M0 0 L71.50000000000023 0 L71.50000000000023 143.0000000000004 L0 143.0000000000004z"/></clipPath><text font-size="37" clip-path="url(#id15)" text-decoration="none" fill="#000000" font-family="Arial,Arial" font-style="normal" font-weight="normal"><tspan x="25.0" xml:space="preserve" y="84.5000000000002" textLength="21.0">6</tspan></text></g><g transform="translate(71.50000000000023 1.7053025658242404E-13)"><clipPath id="id16"><path d="M0 0 L71.50000000000023 0 L71.50000000000023 143.0000000000004 L0 143.0000000000004z"/></clipPath><text font-size="37" clip-path="url(#id16)" text-decoration="none" fill="#000000" font-family="Arial,Arial" font-style="normal" font-weight="normal"><tspan x="15.0" xml:space="preserve" y="84.5000000000002" textLength="42.0">20</tspan></text></g></g><g transform="translate(336.7499999999999 516.7000000000004)"><g transform="translate(-35.75 35.75000000000017) rotate(90.0 71.5000000000002 35.750000000000085)"><path fill="#ffffff" fill-opacity="1.0" d="M143.00000000000028 0.0 Q143.00000000000028 29.61485098000007 122.0590800000002 50.55693500000011 Q101.11715900000024 71.50000000000013 71.50000000000014 71.50000000000013 Q41.883985000000116 71.50000000000013 20.94199621800007 50.55800464000011 Q0.0 29.616015000000065 0.0 0.0 L143.00000000000028 0.0z" stroke-width="1.0" stroke-linejoin="round" stroke="#000000"/><g transform="translate(19.79691980361945 5.720000000000013)"><clipPath id="id17"><path d="M0 0 L103.41759956359893 0 L103.41759956359893 45.325278778076296 L0 45.325278778076296z"/></clipPath><text font-size="12" clip-path="url(#id17)" text-decoration="none" fill="#000000" font-family="Arial,Arial" font-style="normal" font-weight="normal"/></g></g><g transform="translate(35.75000000000017 35.75000000000034) rotate(270.0 71.5000000000002 35.750000000000085)"><path fill="#ffffff" fill-opacity="1.0" d="M143.00000000000028 0.0 Q143.00000000000028 29.61485098000007 122.0590800000002 50.55693500000011 Q101.11715900000024 71.50000000000013 71.50000000000014 71.50000000000013 Q41.883985000000116 71.50000000000013 20.94199621800007 50.55800464000011 Q0.0 29.616015000000065 0.0 0.0 L143.00000000000028 0.0z" stroke-width="1.0" stroke-linejoin="round" stroke="#000000"/><g transform="translate(19.79691980361945 5.720000000000013)"><clipPath id="id18"><path d="M0 0 L103.41759956359893 0 L103.41759956359893 45.325278778076296 L0 45.325278778076296z"/></clipPath><text font-size="12" clip-path="url(#id18)" text-decoration="none" fill="#000000" font-family="Arial,Arial" font-style="normal" font-weight="normal"/></g></g><g transform="translate(0.0 1.7053025658242404E-13)"><clipPath id="id19"><path d="M0 0 L71.50000000000023 0 L71.50000000000023 143.0000000000004 L0 143.0000000000004z"/></clipPath><text font-size="37" clip-path="url(#id19)" text-decoration="none" fill="#000000" font-family="Arial,Arial" font-style="normal" font-weight="normal"><tspan x="25.0" xml:space="preserve" y="84.5000000000002" textLength="21.0">1</tspan></text></g><g transform="translate(71.50000000000023 1.7053025658242404E-13)"><clipPath id="id20"><path d="M0 0 L71.50000000000023 0 L71.50000000000023 143.0000000000004 L0 143.0000000000004z"/></clipPath><text font-size="37" clip-path="url(#id20)" text-decoration="none" fill="#000000" font-family="Arial,Arial" font-style="normal" font-weight="normal"><tspan x="25.0" xml:space="preserve" y="84.5000000000002" textLength="21.0">1</tspan></text></g></g><g transform="translate(543.0 373.6999999999998)"><g transform="translate(-35.75 35.75000000000017) rotate(90.0 71.5000000000002 35.750000000000085)"><path fill="#ffffff" fill-opacity="1.0" d="M143.00000000000028 0.0 Q143.00000000000028 29.61485098000007 122.0590800000002 50.55693500000011 Q101.11715900000024 71.50000000000013 71.50000000000014 71.50000000000013 Q41.883985000000116 71.50000000000013 20.94199621800007 50.55800464000011 Q0.0 29.616015000000065 0.0 0.0 L143.00000000000028 0.0z" stroke-width="1.0" stroke-linejoin="round" stroke="#000000"/><g transform="translate(19.79691980361945 5.720000000000013)"><clipPath id="id21"><path d="M0 0 L103.41759956359893 0 L103.41759956359893 45.325278778076296 L0 45.325278778076296z"/></clipPath><text font-size="12" clip-path="url(#id21)" text-decoration="none" fill="#000000" font-family="Arial,Arial" font-style="normal" font-weight="normal"/></g></g><g transform="translate(35.75000000000017 35.75000000000034) rotate(270.0 71.5000000000002 35.750000000000085)"><path fill="#ffffff" fill-opacity="1.0" d="M143.00000000000028 0.0 Q143.00000000000028 29.61485098000007 122.0590800000002 50.55693500000011 Q101.11715900000024 71.50000000000013 71.50000000000014 71.50000000000013 Q41.883985000000116 71.50000000000013 20.94199621800007 50.55800464000011 Q0.0 29.616015000000065 0.0 0.0 L143.00000000000028 0.0z" stroke-width="1.0" stroke-linejoin="round" stroke="#000000"/><g transform="translate(19.79691980361945 5.720000000000013)"><clipPath id="id22"><path d="M0 0 L103.41759956359893 0 L103.41759956359893 45.325278778076296 L0 45.325278778076296z"/></clipPath><text font-size="12" clip-path="url(#id22)" text-decoration="none" fill="#000000" font-family="Arial,Arial" font-style="normal" font-weight="normal"/></g></g><g transform="translate(0.0 1.7053025658242404E-13)"><clipPath id="id23"><path d="M0 0 L71.50000000000023 0 L71.50000000000023 143.0000000000004 L0 143.0000000000004z"/></clipPath><text font-size="37" clip-path="url(#id23)" text-decoration="none" fill="#000000" font-family="Arial,Arial" font-style="normal" font-weight="normal"><tspan x="25.0" xml:space="preserve" y="84.5000000000002" textLength="21.0">3</tspan></text></g><g transform="translate(71.50000000000023 1.7053025658242404E-13)"><clipPath id="id24"><path d="M0 0 L71.50000000000023 0 L71.50000000000023 143.0000000000004 L0 143.0000000000004z"/></clipPath><text font-size="37" clip-path="url(#id24)" text-decoration="none" fill="#000000" font-family="Arial,Arial" font-style="normal" font-weight="normal"><tspan x="25.0" xml:space="preserve" y="84.5000000000002" textLength="21.0">3</tspan></text></g></g><g transform="translate(1109.0 229.17906742741837)"><g transform="translate(-35.75 35.75000000000017) rotate(90.0 71.5000000000002 35.750000000000085)"><path fill="#ffffff" fill-opacity="1.0" d="M143.00000000000028 0.0 Q143.00000000000028 29.61485098000007 122.0590800000002 50.55693500000011 Q101.11715900000024 71.50000000000013 71.50000000000014 71.50000000000013 Q41.883985000000116 71.50000000000013 20.94199621800007 50.55800464000011 Q0.0 29.616015000000065 0.0 0.0 L143.00000000000028 0.0z" stroke-width="1.0" stroke-linejoin="round" stroke="#000000"/><g transform="translate(19.79691980361945 5.720000000000013)"><clipPath id="id25"><path d="M0 0 L103.41759956359893 0 L103.41759956359893 45.325278778076296 L0 45.325278778076296z"/></clipPath><text font-size="12" clip-path="url(#id25)" text-decoration="none" fill="#000000" font-family="Arial,Arial" font-style="normal" font-weight="normal"/></g></g><g transform="translate(35.75000000000017 35.75000000000034) rotate(270.0 71.5000000000002 35.750000000000085)"><path fill="#ffffff" fill-opacity="1.0" d="M143.00000000000028 0.0 Q143.00000000000028 29.61485098000007 122.0590800000002 50.55693500000011 Q101.11715900000024 71.50000000000013 71.50000000000014 71.50000000000013 Q41.883985000000116 71.50000000000013 20.94199621800007 50.55800464000011 Q0.0 29.616015000000065 0.0 0.0 L143.00000000000028 0.0z" stroke-width="1.0" stroke-linejoin="round" stroke="#000000"/><g transform="translate(19.79691980361945 5.720000000000013)"><clipPath id="id26"><path d="M0 0 L103.41759956359893 0 L103.41759956359893 45.325278778076296 L0 45.325278778076296z"/></clipPath><text font-size="12" clip-path="url(#id26)" text-decoration="none" fill="#000000" font-family="Arial,Arial" font-style="normal" font-weight="normal"/></g></g><g transform="translate(0.0 1.7053025658242404E-13)"><clipPath id="id27"><path d="M0 0 L71.50000000000023 0 L71.50000000000023 143.0000000000004 L0 143.0000000000004z"/></clipPath><text font-size="37" clip-path="url(#id27)" text-decoration="none" fill="#000000" font-family="Arial,Arial" font-style="normal" font-weight="normal"><tspan x="15.0" xml:space="preserve" y="84.5000000000002" textLength="42.0">26</tspan></text></g><g transform="translate(71.50000000000023 1.7053025658242404E-13)"><clipPath id="id28"><path d="M0 0 L71.50000000000023 0 L71.50000000000023 143.0000000000004 L0 143.0000000000004z"/></clipPath><text font-size="37" clip-path="url(#id28)" text-decoration="none" fill="#000000" font-family="Arial,Arial" font-style="normal" font-weight="normal"><tspan x="15.0" xml:space="preserve" y="84.5000000000002" textLength="42.0">26</tspan></text></g></g><g transform="translate(962.0 373.6999999999998)"><g transform="translate(-35.75 35.75000000000017) rotate(90.0 71.5000000000002 35.750000000000085)"><path fill="#ffffff" fill-opacity="1.0" d="M143.00000000000028 0.0 Q143.00000000000028 29.61485098000007 122.0590800000002 50.55693500000011 Q101.11715900000024 71.50000000000013 71.50000000000014 71.50000000000013 Q41.883985000000116 71.50000000000013 20.94199621800007 50.55800464000011 Q0.0 29.616015000000065 0.0 0.0 L143.00000000000028 0.0z" stroke-width="1.0" stroke-linejoin="round" stroke="#000000"/><g transform="translate(19.79691980361945 5.720000000000013)"><clipPath id="id29"><path d="M0 0 L103.41759956359893 0 L103.41759956359893 45.325278778076296 L0 45.325278778076296z"/></clipPath><text font-size="12" clip-path="url(#id29)" text-decoration="none" fill="#000000" font-family="Arial,Arial" font-style="normal" font-weight="normal"/></g></g><g transform="translate(35.75000000000017 35.75000000000034) rotate(270.0 71.5000000000002 35.750000000000085)"><path fill="#ffffff" fill-opacity="1.0" d="M143.00000000000028 0.0 Q143.00000000000028 29.61485098000007 122.0590800000002 50.55693500000011 Q101.11715900000024 71.50000000000013 71.50000000000014 71.50000000000013 Q41.883985000000116 71.50000000000013 20.94199621800007 50.55800464000011 Q0.0 29.616015000000065 0.0 0.0 L143.00000000000028 0.0z" stroke-width="1.0" stroke-linejoin="round" stroke="#000000"/><g transform="translate(19.79691980361945 5.720000000000013)"><clipPath id="id30"><path d="M0 0 L103.41759956359893 0 L103.41759956359893 45.325278778076296 L0 45.325278778076296z"/></clipPath><text font-size="12" clip-path="url(#id30)" text-decoration="none" fill="#000000" font-family="Arial,Arial" font-style="normal" font-weight="normal"/></g></g><g transform="translate(0.0 1.7053025658242404E-13)"><clipPath id="id31"><path d="M0 0 L71.50000000000023 0 L71.50000000000023 143.0000000000004 L0 143.0000000000004z"/></clipPath><text font-size="37" clip-path="url(#id31)" text-decoration="none" fill="#000000" font-family="Arial,Arial" font-style="normal" font-weight="normal"><tspan x="15.0" xml:space="preserve" y="84.5000000000002" textLength="42.0">20</tspan></text></g><g transform="translate(71.50000000000023 1.7053025658242404E-13)"><clipPath id="id32"><path d="M0 0 L71.50000000000023 0 L71.50000000000023 143.0000000000004 L0 143.0000000000004z"/></clipPath><text font-size="37" clip-path="url(#id32)" text-decoration="none" fill="#000000" font-family="Arial,Arial" font-style="normal" font-weight="normal"><tspan x="15.0" xml:space="preserve" y="84.5000000000002" textLength="42.0">20</tspan></text></g></g><g transform="translate(1299.0 372.17906742741894)"><g transform="translate(-35.75 35.75000000000017) rotate(90.0 71.5000000000002 35.750000000000085)"><path fill="#ffffff" fill-opacity="1.0" d="M143.00000000000028 0.0 Q143.00000000000028 29.61485098000007 122.0590800000002 50.55693500000011 Q101.11715900000024 71.50000000000013 71.50000000000014 71.50000000000013 Q41.883985000000116 71.50000000000013 20.94199621800007 50.55800464000011 Q0.0 29.616015000000065 0.0 0.0 L143.00000000000028 0.0z" stroke-width="1.0" stroke-linejoin="round" stroke="#000000"/><g transform="translate(19.79691980361945 5.720000000000013)"><clipPath id="id33"><path d="M0 0 L103.41759956359893 0 L103.41759956359893 45.325278778076296 L0 45.325278778076296z"/></clipPath><text font-size="12" clip-path="url(#id33)" text-decoration="none" fill="#000000" font-family="Arial,Arial" font-style="normal" font-weight="normal"/></g></g><g transform="translate(35.75000000000017 35.75000000000034) rotate(270.0 71.5000000000002 35.750000000000085)"><path fill="#ffffff" fill-opacity="1.0" d="M143.00000000000028 0.0 Q143.00000000000028 29.61485098000007 122.0590800000002 50.55693500000011 Q101.11715900000024 71.50000000000013 71.50000000000014 71.50000000000013 Q41.883985000000116 71.50000000000013 20.94199621800007 50.55800464000011 Q0.0 29.616015000000065 0.0 0.0 L143.00000000000028 0.0z" stroke-width="1.0" stroke-linejoin="round" stroke="#000000"/><g transform="translate(19.79691980361945 5.720000000000013)"><clipPath id="id34"><path d="M0 0 L103.41759956359893 0 L103.41759956359893 45.325278778076296 L0 45.325278778076296z"/></clipPath><text font-size="12" clip-path="url(#id34)" text-decoration="none" fill="#000000" font-family="Arial,Arial" font-style="normal" font-weight="normal"/></g></g><g transform="translate(0.0 1.7053025658242404E-13)"><clipPath id="id35"><path d="M0 0 L71.50000000000023 0 L71.50000000000023 143.0000000000004 L0 143.0000000000004z"/></clipPath><text font-size="37" clip-path="url(#id35)" text-decoration="none" fill="#000000" font-family="Arial,Arial" font-style="normal" font-weight="normal"><tspan x="15.0" xml:space="preserve" y="84.5000000000002" textLength="42.0">29</tspan></text></g><g transform="translate(71.50000000000023 1.7053025658242404E-13)"><clipPath id="id36"><path d="M0 0 L71.50000000000023 0 L71.50000000000023 143.0000000000004 L0 143.0000000000004z"/></clipPath><text font-size="37" clip-path="url(#id36)" text-decoration="none" fill="#000000" font-family="Arial,Arial" font-style="normal" font-weight="normal"><tspan x="15.0" xml:space="preserve" y="84.5000000000002" textLength="42.0">29</tspan></text></g></g><path fill="none" marker-end="url(#id37)" d="M250.8081348548384 394.6418651451621 L336.75000000000006 302.19999999999936" stroke-width="3.0" stroke-linejoin="round" stroke="#000000"/><path fill="none" marker-end="url(#id38)" d="M250.8081348548384 495.75813485483854 L336.7500000000001 588.2000000000005" stroke-width="1.0" stroke-linejoin="round" stroke="#000000"/><g transform="translate(278.87500000000017 326.7999999999993)"><clipPath id="id39"><path d="M0 0 L31.24999999999966 0 L31.24999999999966 26.800000000000466 L0 26.800000000000466z"/></clipPath><text font-size="15" clip-path="url(#id39)" text-decoration="none" fill="#000000" font-family="Arial,Arial" font-style="normal" font-weight="bold"><tspan x="2.0" xml:space="preserve" y="16.0" textLength="8.0">1</tspan></text></g><g transform="translate(288.0 505.7999999999993)"><clipPath id="id40"><path d="M0 0 L31.0 0 L31.0 34.0 L0 34.0z"/></clipPath><text font-size="15" clip-path="url(#id40)" text-decoration="none" fill="#000000" font-family="Arial,Arial" font-style="normal" font-weight="bold"><tspan x="2.0" xml:space="preserve" y="16.0" textLength="8.0">2</tspan></text></g><g transform="translate(295.0 353.59999999999974)"><clipPath id="id41"><path d="M0 0 L31.24999999999966 0 L31.24999999999966 26.800000000000466 L0 26.800000000000466z"/></clipPath><text font-size="12" clip-path="url(#id41)" text-decoration="none" fill="#000000" font-family="Arial,Arial" font-style="normal" font-weight="normal"><tspan x="2.0" xml:space="preserve" y="14.0" textLength="7.0">1</tspan></text></g><g transform="translate(272.0 539.0)"><clipPath id="id42"><path d="M0 0 L31.24999999999966 0 L31.24999999999966 26.80000000000041 L0 26.80000000000041z"/></clipPath><text font-size="12" clip-path="url(#id42)" text-decoration="none" fill="#000000" font-family="Arial,Arial" font-style="normal" font-weight="normal"><tspan x="2.0" xml:space="preserve" y="14.0" textLength="7.0">1</tspan></text></g><path fill="none" marker-end="url(#id43)" d="M479.7500000000002 302.19999999999976 L563.9418651451621 394.6418651451618" stroke-width="3.0" stroke-linejoin="round" stroke="#000000"/><path fill="none" stroke-linejoin="round" stroke-dasharray="3.0 1.0" d="M479.7500000000002 588.2000000000008 L563.9418651451621 495.7581348548382" stroke="#000000" stroke-width="1.0" marker-end="url(#id44)"/><g transform="translate(524.0 318.0)"><clipPath id="id45"><path d="M0 0 L31.249999999999545 0 L31.249999999999545 26.800000000000466 L0 26.800000000000466z"/></clipPath><text font-size="15" clip-path="url(#id45)" text-decoration="none" fill="#000000" font-family="Arial,Arial" font-style="normal" font-weight="bold"><tspan x="2.0" xml:space="preserve" y="16.0" textLength="8.0">3</tspan></text></g><g transform="translate(507.81686514516207 345.3790674274185)"><clipPath id="id46"><path d="M0 0 L31.24999999999966 0 L31.24999999999966 26.800000000000466 L0 26.800000000000466z"/></clipPath><text font-size="12" clip-path="url(#id46)" text-decoration="none" fill="#000000" font-family="Arial,Arial" font-style="normal" font-weight="normal"><tspan x="2.0" xml:space="preserve" y="14.0" textLength="7.0">2</tspan></text></g><path fill="none" marker-end="url(#id47)" d="M665.0581348548385 495.75813485483843 L750.0000000000001 586.8999999999995" stroke-width="3.0" stroke-linejoin="round" stroke="#000000"/><g transform="translate(706.0000000000003 515.3999999999994)"><clipPath id="id48"><path d="M0 0 L28.0 0 L28.0 25.200000000000045 L0 25.200000000000045z"/></clipPath><text font-size="15" clip-path="url(#id48)" text-decoration="none" fill="#000000" font-family="Arial,Arial" font-style="normal" font-weight="bold"><tspan x="2.0" xml:space="preserve" y="16.0" textLength="8.0">4</tspan></text></g><g transform="translate(687.0 545.0)"><clipPath id="id49"><path d="M0 0 L28.0 0 L28.0 25.200000000000045 L0 25.200000000000045z"/></clipPath><text font-size="12" clip-path="url(#id49)" text-decoration="none" fill="#000000" font-family="Arial,Arial" font-style="normal" font-weight="normal"><tspan x="2.0" xml:space="preserve" y="14.0" textLength="7.0">5</tspan></text></g><path fill="none" marker-end="url(#id50)" d="M893.0000000000003 586.8999999999999 L982.9418651451621 495.7581348548383" stroke-width="3.0" stroke-linejoin="round" stroke="#000000"/><path fill="none" stroke-linejoin="round" stroke-dasharray="3.0 1.0" d="M686.0000000000003 445.2000000000003 L962.0000000000002 445.19999999999993" stroke="#000000" stroke-width="1.0" marker-end="url(#id51)"/><g transform="translate(934.0 544.0)"><clipPath id="id52"><path d="M0 0 L28.0 0 L28.0 25.200000000000045 L0 25.200000000000045z"/></clipPath><text font-size="12" clip-path="url(#id52)" text-decoration="none" fill="#000000" font-family="Arial,Arial" font-style="normal" font-weight="normal"><tspan x="2.0" xml:space="preserve" y="14.0" textLength="14.0">12</tspan></text></g><g transform="translate(919.0 519.0)"><clipPath id="id53"><path d="M0 0 L28.0 0 L28.0 25.200000000000045 L0 25.200000000000045z"/></clipPath><text font-size="15" clip-path="url(#id53)" text-decoration="none" fill="#000000" font-family="Arial,Arial" font-style="normal" font-weight="bold"><tspan x="2.0" xml:space="preserve" y="16.0" textLength="8.0">5</tspan></text></g><path fill="none" marker-end="url(#id54)" d="M665.0581348548385 394.641865145162 L750.0000000000002 300.67906742741854" stroke-width="1.0" stroke-linejoin="round" stroke="#000000"/><g transform="translate(713.0 353.59999999999974)"><clipPath id="id55"><path d="M0 0 L28.0 0 L28.0 25.200000000000045 L0 25.200000000000045z"/></clipPath><text font-size="12" clip-path="url(#id55)" text-decoration="none" fill="#000000" font-family="Arial,Arial" font-style="normal" font-weight="normal"><tspan x="2.0" xml:space="preserve" y="14.0" textLength="7.0">3</tspan></text></g><g transform="translate(692.0000000000003 328.3999999999997)"><clipPath id="id56"><path d="M0 0 L28.0 0 L28.0 25.200000000000045 L0 25.200000000000045z"/></clipPath><text font-size="15" clip-path="url(#id56)" text-decoration="none" fill="#000000" font-family="Arial,Arial" font-style="normal" font-weight="bold"><tspan x="2.0" xml:space="preserve" y="16.0" textLength="8.0">6</tspan></text></g><path fill="none" marker-end="url(#id57)" d="M1084.0581348548385 394.641865145162 L1129.9418651451622 351.23720228225693" stroke-width="3.0" stroke-linejoin="round" stroke="#000000"/><path fill="none" marker-end="url(#id58)" d="M1231.0581348548387 351.23720228225716 L1299.0000000000002 443.6790674274192" stroke-width="3.0" stroke-linejoin="round" stroke="#000000"/><path fill="none" stroke-linejoin="round" stroke-dasharray="3.0 1.0" d="M893.0000000000002 300.6790674274189 L1109.0000000000002 300.67906742741866" stroke="#000000" stroke-width="1.0" marker-end="url(#id59)"/><g transform="translate(1108.0 376.0)"><clipPath id="id60"><path d="M0 0 L28.0 0 L28.0 25.200000000000045 L0 25.200000000000045z"/></clipPath><text font-size="12" clip-path="url(#id60)" text-decoration="none" fill="#000000" font-family="Arial,Arial" font-style="normal" font-weight="normal"><tspan x="2.0" xml:space="preserve" y="14.0" textLength="7.0">6</tspan></text></g><g transform="translate(1090.0 356.0)"><clipPath id="id61"><path d="M0 0 L28.0 0 L28.0 25.200000000000045 L0 25.200000000000045z"/></clipPath><text font-size="15" clip-path="url(#id61)" text-decoration="none" fill="#000000" font-family="Arial,Arial" font-style="normal" font-weight="bold"><tspan x="2.0" xml:space="preserve" y="16.0" textLength="8.0">7</tspan></text></g><g transform="translate(1266.0000000000005 366.19999999999976)"><clipPath id="id62"><path d="M0 0 L28.0 0 L28.0 25.200000000000045 L0 25.200000000000045z"/></clipPath><text font-size="15" clip-path="url(#id62)" text-decoration="none" fill="#000000" font-family="Arial,Arial" font-style="normal" font-weight="bold"><tspan x="2.0" xml:space="preserve" y="16.0" textLength="8.0">8</tspan></text></g><g transform="translate(1240.0 391.3999999999998)"><clipPath id="id63"><path d="M0 0 L28.0 0 L28.0 25.200000000000045 L0 25.200000000000045z"/></clipPath><text font-size="12" clip-path="url(#id63)" text-decoration="none" fill="#000000" font-family="Arial,Arial" font-style="normal" font-weight="normal"><tspan x="2.0" xml:space="preserve" y="14.0" textLength="7.0">3</tspan></text></g><g transform="translate(129.0 192.0)"><clipPath id="id64"><path d="M0 0 L187.0 0 L187.0 79.0 L0 79.0z"/></clipPath><text font-size="15" clip-path="url(#id64)" text-decoration="underline" fill="#000000" font-family="Arial,Arial" font-style="normal" font-weight="bold"><tspan x="2.0" xml:space="preserve" y="16.0" textLength="27.0">Key</tspan></text><text font-size="12" clip-path="url(#id64)" text-decoration="none" fill="#000000" font-family="Arial,Arial" font-style="normal" font-weight="normal"/><text font-size="15" clip-path="url(#id64)" text-decoration="none" fill="#000000" font-family="Arial,Arial" font-style="normal" font-weight="bold"><tspan x="2.0" xml:space="preserve" y="34.0" textLength="8.0">1</tspan></text><text font-size="12" clip-path="url(#id64)" text-decoration="none" fill="#000000" font-family="Arial,Arial" font-style="normal" font-weight="normal"><tspan x="10.0" xml:space="preserve" y="34.0" textLength="86.0"> = Task number</tspan><tspan x="2.0" xml:space="preserve" y="50.0" textLength="101.0">1 = length (weeks)</tspan><tspan x="2.0" xml:space="preserve" y="65.0" textLength="138.0">Thick arrow = critical path</tspan></text></g></g></svg>